<svg width="19" height="19" viewBox="0 0 19 19" fill="none" xmlns="http://www.w3.org/2000/svg">
<path fill-rule="evenodd" clip-rule="evenodd" d="M14.7627 12.7209C15.2768 12.7202 15.7747 12.5412 16.1715 12.2144C16.5683 11.8876 16.8395 11.4333 16.9388 10.929L18.0538 5.35596C18.1183 5.03298 18.1105 4.69967 18.0309 4.38007C17.9513 4.06046 17.8018 3.7625 17.5933 3.50757C17.3847 3.25263 17.1222 3.04707 16.8248 2.9057C16.5273 2.76433 16.2021 2.69064 15.8728 2.68994H4.77276V1.57495C4.77249 1.2801 4.65547 0.997347 4.44726 0.788574C4.23904 0.579802 3.95661 0.461995 3.66176 0.460938H1.44677C1.15696 0.469619 0.881935 0.590827 0.680013 0.798889C0.47809 1.00695 0.365163 1.2855 0.365163 1.57544C0.365163 1.86537 0.47809 2.14393 0.680013 2.35199C0.881935 2.56005 1.15696 2.68126 1.44677 2.68994H2.56176V13.835C2.12048 13.833 1.68854 13.962 1.32067 14.2057C0.952798 14.4495 0.665562 14.7969 0.49532 15.204C0.325078 15.6111 0.279495 16.0596 0.364369 16.4926C0.449243 16.9257 0.660736 17.3238 0.972066 17.6365C1.2834 17.9493 1.68056 18.1625 2.11321 18.2493C2.54586 18.3361 2.99455 18.2926 3.40242 18.1242C3.8103 17.9558 4.15904 17.6701 4.40441 17.3033C4.64978 16.9366 4.78075 16.5052 4.78075 16.064H12.5468C12.5486 16.5027 12.6802 16.931 12.9253 17.2949C13.1703 17.6588 13.5176 17.9419 13.9234 18.1085C14.3292 18.2752 14.7753 18.3179 15.2053 18.2312C15.6354 18.1445 16.0301 17.9323 16.3397 17.6215C16.6493 17.3107 16.8598 16.9151 16.9448 16.4847C17.0297 16.0544 16.9852 15.6084 16.8169 15.2033C16.6486 14.7982 16.3641 14.452 15.9992 14.2084C15.6343 13.9649 15.2055 13.835 14.7668 13.835H4.77977V12.7209H14.7627ZM15.8778 4.92096L14.7627 10.494H4.77575V4.92096H15.8758H15.8778Z" fill="#33A0FF"/>
</svg>
