<svg width="19" height="17" viewBox="0 0 19 17" fill="none" xmlns="http://www.w3.org/2000/svg">
<path fill-rule="evenodd" clip-rule="evenodd" d="M13.1451 2.80421C13.789 2.80487 14.4189 2.99135 14.9593 3.34132C15.4998 3.69128 15.9276 4.18982 16.1916 4.77705C16.4556 5.36427 16.5445 6.01525 16.4476 6.65174C16.3506 7.28824 16.072 7.88318 15.6451 8.36518C15.0321 9.05618 9.80517 13.9492 9.80517 13.9492C9.80517 13.9492 4.56715 9.0562 3.95415 8.3542C3.41296 7.74673 3.11524 6.96079 3.11815 6.14723C3.13332 5.27049 3.49223 4.43473 4.1176 3.82008C4.74298 3.20542 5.58479 2.86103 6.46166 2.86103C7.33853 2.86103 8.18028 3.20542 8.80565 3.82008C9.43103 4.43473 9.79 5.27049 9.80517 6.14723C9.80517 5.70809 9.89163 5.27321 10.0597 4.8675C10.2277 4.46179 10.4741 4.09318 10.7846 3.78266C11.0951 3.47214 11.4637 3.2258 11.8694 3.05775C12.2751 2.8897 12.71 2.80323 13.1492 2.80323L13.1451 2.80421ZM13.1492 0.574227C11.9429 0.572122 10.7688 0.963582 9.80517 1.68922C8.70121 0.869834 7.3333 0.487409 5.96447 0.615487C4.59563 0.743565 3.32243 1.37311 2.38964 2.38307C1.45685 3.39302 0.930292 4.71212 0.911183 6.0868C0.892075 7.46148 1.38176 8.79471 2.28612 9.83021C2.91212 10.5482 7.03512 14.4082 8.28612 15.5742C8.69904 15.9604 9.24329 16.1752 9.80864 16.1752C10.374 16.1752 10.9182 15.9604 11.3311 15.5742C12.5751 14.4092 16.6811 10.5592 17.3151 9.84223C18.0264 9.0387 18.4907 8.04687 18.652 6.98591C18.8133 5.92495 18.6648 4.83997 18.2245 3.86134C17.7841 2.8827 17.0705 2.05199 16.1695 1.46906C15.2685 0.886136 14.2183 0.575753 13.1451 0.575204L13.1492 0.574227Z" fill="#33A0FF"/>
</svg>
